<svg xmlns="http://www.w3.org/2000/svg" xmlns:xlink="http://www.w3.org/1999/xlink" contentScriptType="application/ecmascript" contentStyleType="text/css" height="361px" preserveAspectRatio="none" style="width:391px;height:361px;" version="1.1" viewBox="0 0 391 361" width="391px" zoomAndPan="magnify"><defs><filter height="300%" id="f1h1reb9ur232f" width="300%" x="-1" y="-1"><feGaussianBlur result="blurOut" stdDeviation="2.0"/><feColorMatrix in="blurOut" result="blurOut2" type="matrix" values="0 0 0 0 0 0 0 0 0 0 0 0 0 0 0 0 0 0 .4 0"/><feOffset dx="4.0" dy="4.0" in="blurOut2" result="blurOut3"/><feBlend in="SourceGraphic" in2="blurOut3" mode="normal"/></filter></defs><g><line style="stroke: #A80036; stroke-width: 1.0; stroke-dasharray: 5.0,5.0;" x1="41" x2="41" y1="65.2969" y2="288.0938"/><line style="stroke: #A80036; stroke-width: 1.0; stroke-dasharray: 5.0,5.0;" x1="200" x2="200" y1="65.2969" y2="288.0938"/><line style="stroke: #A80036; stroke-width: 1.0; stroke-dasharray: 5.0,5.0;" x1="341" x2="341" y1="65.2969" y2="288.0938"/><text fill="#000000" font-family="sans-serif" font-size="14" lengthAdjust="spacingAndGlyphs" textLength="61" x="8" y="61.9951">Firebase</text><path d="M23.5,13 C23.5,3 41.5,3 41.5,3 C41.5,3 59.5,3 59.5,13 L59.5,39 C59.5,49 41.5,49 41.5,49 C41.5,49 23.5,49 23.5,39 L23.5,13 " fill="#FEFECE" filter="url(#f1h1reb9ur232f)" style="stroke: #000000; stroke-width: 1.5;"/><path d="M23.5,13 C23.5,23 41.5,23 41.5,23 C41.5,23 59.5,23 59.5,13 " fill="none" style="stroke: #000000; stroke-width: 1.5;"/><text fill="#000000" font-family="sans-serif" font-size="14" lengthAdjust="spacingAndGlyphs" textLength="61" x="8" y="300.0889">Firebase</text><path d="M23.5,313.3906 C23.5,303.3906 41.5,303.3906 41.5,303.3906 C41.5,303.3906 59.5,303.3906 59.5,313.3906 L59.5,339.3906 C59.5,349.3906 41.5,349.3906 41.5,349.3906 C41.5,349.3906 23.5,349.3906 23.5,339.3906 L23.5,313.3906 " fill="#FEFECE" filter="url(#f1h1reb9ur232f)" style="stroke: #000000; stroke-width: 1.5;"/><path d="M23.5,313.3906 C23.5,323.3906 41.5,323.3906 41.5,323.3906 C41.5,323.3906 59.5,323.3906 59.5,313.3906 " fill="none" style="stroke: #000000; stroke-width: 1.5;"/><rect fill="#FEFECE" filter="url(#f1h1reb9ur232f)" height="30.2969" style="stroke: #A80036; stroke-width: 1.5;" width="57" x="170" y="30"/><text fill="#000000" font-family="sans-serif" font-size="14" lengthAdjust="spacingAndGlyphs" textLength="43" x="177" y="49.9951">Client</text><rect fill="#FEFECE" filter="url(#f1h1reb9ur232f)" height="30.2969" style="stroke: #A80036; stroke-width: 1.5;" width="57" x="170" y="287.0938"/><text fill="#000000" font-family="sans-serif" font-size="14" lengthAdjust="spacingAndGlyphs" textLength="43" x="177" y="307.0889">Client</text><rect fill="#FEFECE" filter="url(#f1h1reb9ur232f)" height="30.2969" style="stroke: #A80036; stroke-width: 1.5;" width="61" x="309" y="30"/><text fill="#000000" font-family="sans-serif" font-size="14" lengthAdjust="spacingAndGlyphs" textLength="47" x="316" y="49.9951">Server</text><rect fill="#FEFECE" filter="url(#f1h1reb9ur232f)" height="30.2969" style="stroke: #A80036; stroke-width: 1.5;" width="61" x="309" y="287.0938"/><text fill="#000000" font-family="sans-serif" font-size="14" lengthAdjust="spacingAndGlyphs" textLength="47" x="316" y="307.0889">Server</text><rect fill="#EEEEEE" filter="url(#f1h1reb9ur232f)" height="3" style="stroke: #EEEEEE; stroke-width: 1.0;" width="376" x="3" y="95.8633"/><line style="stroke: #000000; stroke-width: 1.0;" x1="3" x2="379" y1="95.8633" y2="95.8633"/><line style="stroke: #000000; stroke-width: 1.0;" x1="3" x2="379" y1="98.8633" y2="98.8633"/><rect fill="#EEEEEE" filter="url(#f1h1reb9ur232f)" height="23.1328" style="stroke: #000000; stroke-width: 2.0;" width="172" x="105" y="85.2969"/><text fill="#000000" font-family="sans-serif" font-size="13" font-weight="bold" lengthAdjust="spacingAndGlyphs" textLength="153" x="111" y="101.3638">On App Initialization</text><polygon fill="#A80036" points="52.5,135.5625,42.5,139.5625,52.5,143.5625,48.5,139.5625" style="stroke: #A80036; stroke-width: 1.0;"/><line style="stroke: #A80036; stroke-width: 1.0;" x1="46.5" x2="199.5" y1="139.5625" y2="139.5625"/><text fill="#000000" font-family="sans-serif" font-size="13" lengthAdjust="spacingAndGlyphs" textLength="135" x="58.5" y="134.4966">request device token</text><polygon fill="#A80036" points="188.5,164.6953,198.5,168.6953,188.5,172.6953,192.5,168.6953" style="stroke: #A80036; stroke-width: 1.0;"/><line style="stroke: #A80036; stroke-width: 1.0;" x1="41.5" x2="194.5" y1="168.6953" y2="168.6953"/><text fill="#000000" font-family="sans-serif" font-size="13" lengthAdjust="spacingAndGlyphs" textLength="117" x="48.5" y="163.6294">send device token</text><rect fill="#EEEEEE" filter="url(#f1h1reb9ur232f)" height="3" style="stroke: #EEEEEE; stroke-width: 1.0;" width="376" x="3" y="197.2617"/><line style="stroke: #000000; stroke-width: 1.0;" x1="3" x2="379" y1="197.2617" y2="197.2617"/><line style="stroke: #000000; stroke-width: 1.0;" x1="3" x2="379" y1="200.2617" y2="200.2617"/><rect fill="#EEEEEE" filter="url(#f1h1reb9ur232f)" height="23.1328" style="stroke: #000000; stroke-width: 2.0;" width="84" x="149" y="186.6953"/><text fill="#000000" font-family="sans-serif" font-size="13" font-weight="bold" lengthAdjust="spacingAndGlyphs" textLength="65" x="155" y="202.7622">On Login</text><polygon fill="#A80036" points="329.5,236.9609,339.5,240.9609,329.5,244.9609,333.5,240.9609" style="stroke: #A80036; stroke-width: 1.0;"/><line style="stroke: #A80036; stroke-width: 1.0;" x1="200.5" x2="335.5" y1="240.9609" y2="240.9609"/><text fill="#000000" font-family="sans-serif" font-size="13" lengthAdjust="spacingAndGlyphs" textLength="117" x="207.5" y="235.895">send device token</text><polygon fill="#A80036" points="211.5,266.0938,201.5,270.0938,211.5,274.0938,207.5,270.0938" style="stroke: #A80036; stroke-width: 1.0;"/><line style="stroke: #A80036; stroke-width: 1.0;" x1="205.5" x2="340.5" y1="270.0938" y2="270.0938"/><text fill="#000000" font-family="sans-serif" font-size="13" lengthAdjust="spacingAndGlyphs" textLength="93" x="217.5" y="265.0278">send unique id</text><!--MD5=[2f4dea3accb2609d7430cf48118c7ba5]
@startuml
== On App Initialization ==
database Firebase
Client -> Firebase : request device token
Firebase -> Client : send device token
== On Login ==
Client -> Server : send device token
Server -> Client : send unique id
@enduml

PlantUML version 1.2020.16beta10(Unknown compile time)
(GPL source distribution)
Java Runtime: Java(TM) SE Runtime Environment
JVM: Java HotSpot(TM) 64-Bit Server VM
Default Encoding: UTF-8
Language: en
Country: US
--></g></svg>